<?xml version="1.0" encoding="utf-8"?>
<!-- Generator: Adobe Illustrator 27.1.1, SVG Export Plug-In . SVG Version: 6.00 Build 0)  -->
<svg version="1.1" id="Bold" xmlns="http://www.w3.org/2000/svg" xmlns:xlink="http://www.w3.org/1999/xlink" x="0px" y="0px"
	 viewBox="0 0 35 35" style="enable-background:new 0 0 35 35;" xml:space="preserve">
<style type="text/css">
	.st0{fill:#FFFFFF;}
</style>
<path class="st0" d="M17.5,8.5c-5,0-9,4-9,9c0,5,4,9,9,9c5,0,9-4,9-9C26.5,12.6,22.5,8.5,17.5,8.5L17.5,8.5z M17.5,23.3
	c-3.2,0-5.8-2.6-5.8-5.8s2.6-5.8,5.8-5.8s5.8,2.6,5.8,5.8C23.3,20.7,20.7,23.3,17.5,23.3z"/>
<path class="st0" d="M24.7,0.1C21.5,0,13.5,0,10.3,0.1C7.5,0.3,5,0.9,3,3C-0.4,6.3,0,10.9,0,17.5C0,24.3-0.4,28.7,3,32.1
	c3.4,3.4,8,2.9,14.6,2.9c6.7,0,9.1,0,11.5-0.9c3.2-1.3,5.7-4.2,5.9-9.4c0.2-3.2,0.1-11.2,0-14.4C34.6,4.2,31.3,0.4,24.7,0.1
	L24.7,0.1z M29.8,29.8c-2.2,2.2-5.3,2-12.3,2c-7.3,0-10.2,0.1-12.3-2c-2.5-2.4-2-6.4-2-12.3c0-8.1-0.8-13.9,7.3-14.3
	c1.9-0.1,2.4-0.1,7.1-0.1l0.1,0c7.8,0,13.9-0.8,14.2,7.3c0.1,1.8,0.1,2.4,0.1,7.1C31.8,24.7,32,27.7,29.8,29.8L29.8,29.8z"/>
<circle class="st0" cx="26.8" cy="8.2" r="2.1"/>
</svg>
