<?xml version="1.0" encoding="utf-8"?>
<!-- Generator: Adobe Illustrator 27.1.1, SVG Export Plug-In . SVG Version: 6.00 Build 0)  -->
<svg version="1.1" id="Layer_1" xmlns="http://www.w3.org/2000/svg" xmlns:xlink="http://www.w3.org/1999/xlink" x="0px" y="0px"
	 viewBox="0 0 110.8 13.2" style="enable-background:new 0 0 110.8 13.2;" xml:space="preserve">
<style type="text/css">
	.st0{fill:#FFFFFF;}
</style>
<g>
	<path class="st0" d="M10.5,0.4c0.2-0.1,0.5-0.1,0.8-0.1c0.3,0,0.5,0,0.8,0s0.4,0,0.5,0.1c0.1,0.1,0.1,0.3,0.1,0.5
		c0,0.3,0,0.8,0,1.5s0,1.4-0.1,2.3c0,0.9,0,1.9-0.1,3s0,2.2,0,3.4c0,0.1,0,0.3,0,0.5c0,0.2,0,0.4,0.1,0.6c0,0.2,0.1,0.4,0.1,0.6
		c-0.2,0.1-0.5,0.2-0.7,0.2c-0.2,0-0.4,0-0.6,0c-0.4,0-0.7-0.1-0.8-0.2c-0.1-0.1-0.2-0.3-0.2-0.5c0-0.1,0-0.3,0-0.5
		c0-0.3,0-0.5,0-0.8c0-0.3,0-0.6,0-0.9c0-0.3,0-0.6,0-0.8c0-0.6,0-1.4,0-2.4c0-1,0-2.1,0-3.2C10.3,4,10.1,4.4,9.9,4.8S9.5,5.6,9.3,6
		C9.1,6.4,8.9,6.7,8.7,7.1C8.5,7.4,8.4,7.7,8.2,8C8.1,8.2,8.1,8.4,8,8.5C7.9,8.7,7.9,8.8,7.8,8.9c0,0.1-0.1,0.3-0.1,0.4
		c-0.2,0-0.3,0.1-0.5,0.1c-0.2,0-0.3,0-0.5,0.1c-0.2,0-0.3,0-0.5,0c-0.3,0-0.5,0-0.6-0.1C5.4,9.4,5.3,9.3,5.2,9.1
		C4.9,8.8,4.5,8.2,4,7.2C3.5,6.3,2.9,5.1,2.2,3.6v2.8c0,0.6,0,1.3,0,2.1c0,0.8,0,1.8,0,3c0,0.2,0,0.3,0,0.5c0,0.2,0,0.3,0,0.4
		c0,0.2,0,0.3,0,0.4c-0.2,0-0.4,0.1-0.6,0.1c-0.2,0-0.4,0-0.6,0c-0.3,0-0.5-0.1-0.7-0.2c-0.1-0.1-0.2-0.4-0.2-0.7c0-0.1,0-0.3,0-0.5
		c0-0.2,0-0.4,0-0.7c0-0.2,0-0.5,0-0.7s0-0.4,0-0.6c0-0.4,0-0.9,0-1.4c0-0.5,0-1,0-1.4c0-0.5,0-1,0-1.4c0-0.5,0-0.9,0-1.3
		c0-0.6,0-1.2-0.1-1.7c0-0.6-0.2-1.1-0.4-1.8c0.3-0.1,0.7-0.1,1.1-0.2c0.4-0.1,0.7-0.1,1-0.1c0.1,0,0.3,0,0.4,0
		c0.1,0,0.2,0.1,0.3,0.2c0.1,0.3,0.4,0.7,0.6,1.3c0.3,0.6,0.6,1.2,0.9,1.9C4.6,4.3,4.9,5,5.3,5.7c0.4,0.7,0.8,1.4,1.1,1.9
		c0.4-0.8,0.8-1.6,1.3-2.4c0.5-0.8,0.9-1.6,1.3-2.3C9.6,2,10,1.2,10.5,0.4z"/>
	<path class="st0" d="M23.3,11.2c-0.1-0.3-0.2-0.6-0.3-0.8c-0.1-0.3-0.2-0.6-0.3-0.9c-0.1,0-0.3,0-0.5,0s-0.4,0-0.7,0
		c-0.3,0-0.5,0-0.8,0c-0.3,0-0.6,0-0.9,0c-0.4,0-0.8,0-1.2,0c-0.4,0-0.7,0-0.9-0.1c-0.2,0.7-0.4,1.3-0.5,1.8c-0.1,0.5-0.1,1-0.1,1.5
		c-0.1,0-0.3,0-0.4,0.1c-0.1,0-0.3,0-0.5,0.1c-0.2,0-0.4,0-0.6,0c-0.3,0-0.5-0.1-0.6-0.2c-0.1-0.1-0.1-0.4,0-0.9
		c0.1-0.4,0.2-0.9,0.4-1.5s0.5-1.2,0.7-1.9s0.6-1.4,0.9-2.1c0.3-0.7,0.6-1.4,0.9-2.1c0.3-0.7,0.6-1.4,0.8-2C19,1.6,19.1,1,19.3,0.5
		c0.2,0,0.5-0.1,0.7-0.1c0.2,0,0.4-0.1,0.6-0.1c0.2,0,0.4,0,0.6,0c0.2,0,0.4,0,0.5,0c0.1,0,0.3,0.1,0.3,0.2c0.1,0.1,0.2,0.2,0.2,0.4
		c0.1,0.2,0.2,0.4,0.3,0.6c0.1,0.3,0.3,0.8,0.4,1.4c0.1,0.6,0.3,1.2,0.5,1.9c0.2,0.7,0.4,1.5,0.6,2.2s0.4,1.6,0.7,2.3
		c0.2,0.5,0.4,1,0.6,1.3c0.2,0.3,0.5,0.5,0.8,0.5c0.1,0,0.2,0,0.2,0v0.3c0,0.1,0,0.2,0,0.3c0,0.1,0,0.2,0,0.3c0,0.3-0.1,0.6-0.3,0.8
		c-0.2,0.2-0.5,0.3-1,0.3c-0.2,0-0.5,0-0.6-0.1c-0.2,0-0.4-0.1-0.5-0.3s-0.3-0.3-0.4-0.5C23.5,11.9,23.4,11.5,23.3,11.2z M20.7,2.2
		c-0.2,0.4-0.4,0.8-0.6,1.3c-0.2,0.5-0.4,1-0.6,1.4c-0.2,0.5-0.4,1-0.6,1.5s-0.4,1-0.6,1.4c0.2,0,0.5,0,0.9,0c0.4,0,0.7,0,1.1,0
		c0.4,0,0.8,0,1.2,0c0.4,0,0.7,0,0.9-0.1c-0.3-1-0.5-2-0.7-2.9C21.4,4,21.1,3.1,20.7,2.2z"/>
	<path class="st0" d="M33.6,13.1c-0.8,0-1.6-0.1-2.3-0.4c-0.7-0.3-1.3-0.6-1.9-1.2c-0.5-0.5-0.9-1.2-1.3-2c-0.3-0.8-0.5-1.7-0.5-2.7
		c0-0.9,0.1-1.7,0.4-2.5c0.2-0.8,0.6-1.5,1.1-2.2C29.7,1.5,30.3,1,31,0.7c0.7-0.4,1.6-0.6,2.5-0.6c0.4,0,0.7,0,1,0s0.6,0,0.8,0.1
		c0.3,0,0.5,0,0.7,0.1c0.2,0,0.5,0,0.7,0c0,0.7-0.1,1.2-0.2,1.5S36.3,2.2,36,2.2c-0.2,0-0.4,0-0.5,0c-0.2,0-0.4-0.1-0.6-0.1
		C34.7,2,34.5,2,34.2,2c-0.2,0-0.5,0-0.8,0c-0.5,0-0.9,0.1-1.4,0.3c-0.4,0.2-0.8,0.5-1.1,0.9c-0.3,0.4-0.6,0.9-0.8,1.5
		c-0.2,0.6-0.3,1.3-0.3,2c0,1.5,0.3,2.6,1,3.4c0.7,0.8,1.6,1.2,2.7,1.2c0.7,0,1.2-0.1,1.7-0.3c0.5-0.2,0.9-0.4,1.2-0.7
		c0.2,0.2,0.3,0.4,0.4,0.7c0.1,0.3,0.1,0.5,0.1,0.7c0,0.2-0.1,0.4-0.3,0.6c-0.2,0.2-0.5,0.3-0.8,0.5c-0.3,0.1-0.7,0.2-1.1,0.3
		C34.4,13.1,34,13.1,33.6,13.1z"/>
	<path class="st0" d="M46.7,11.2c-0.1-0.3-0.2-0.6-0.3-0.8c-0.1-0.3-0.2-0.6-0.3-0.9c-0.1,0-0.3,0-0.5,0s-0.4,0-0.7,0
		c-0.3,0-0.5,0-0.8,0s-0.6,0-0.9,0c-0.4,0-0.8,0-1.2,0c-0.4,0-0.7,0-0.9-0.1c-0.2,0.7-0.4,1.3-0.5,1.8c-0.1,0.5-0.1,1-0.1,1.5
		c-0.1,0-0.3,0-0.4,0.1c-0.1,0-0.3,0-0.5,0.1c-0.2,0-0.4,0-0.6,0c-0.3,0-0.5-0.1-0.6-0.2c-0.1-0.1-0.1-0.4,0-0.9
		c0.1-0.4,0.2-0.9,0.4-1.5c0.2-0.6,0.4-1.2,0.7-1.9c0.3-0.7,0.6-1.4,0.9-2.1C40.7,5.7,41,5,41.3,4.3c0.3-0.7,0.6-1.4,0.8-2
		c0.2-0.7,0.4-1.2,0.6-1.8c0.2,0,0.5-0.1,0.7-0.1c0.2,0,0.4-0.1,0.6-0.1c0.2,0,0.4,0,0.6,0c0.2,0,0.4,0,0.5,0c0.1,0,0.3,0.1,0.3,0.2
		s0.2,0.2,0.2,0.4c0.1,0.2,0.2,0.4,0.3,0.6c0.1,0.3,0.3,0.8,0.4,1.4c0.2,0.6,0.3,1.2,0.5,1.9s0.4,1.5,0.6,2.2s0.4,1.6,0.7,2.3
		c0.2,0.5,0.4,1,0.6,1.3c0.2,0.3,0.5,0.5,0.8,0.5c0.1,0,0.2,0,0.2,0v0.3c0,0.1,0,0.2,0,0.3c0,0.1,0,0.2,0,0.3c0,0.3-0.1,0.6-0.3,0.8
		c-0.2,0.2-0.5,0.3-1,0.3c-0.2,0-0.5,0-0.6-0.1c-0.2,0-0.4-0.1-0.5-0.3c-0.2-0.1-0.3-0.3-0.4-0.5C46.9,11.9,46.8,11.5,46.7,11.2z
		 M44.1,2.2c-0.2,0.4-0.4,0.8-0.6,1.3c-0.2,0.5-0.4,1-0.6,1.4c-0.2,0.5-0.4,1-0.6,1.5c-0.2,0.5-0.4,1-0.6,1.4c0.2,0,0.5,0,0.9,0
		c0.4,0,0.7,0,1.1,0c0.4,0,0.8,0,1.2,0s0.7,0,0.9-0.1c-0.3-1-0.5-2-0.7-2.9C44.7,4,44.5,3.1,44.1,2.2z"/>
	<path class="st0" d="M60.7,4c0,0.9-0.2,1.7-0.7,2.3c-0.4,0.6-1.1,1.1-1.9,1.4c0.3,0.7,0.6,1.3,0.9,1.7c0.3,0.4,0.5,0.8,0.7,1
		c0.2,0.2,0.4,0.4,0.6,0.5c0.2,0.1,0.4,0.1,0.6,0.1c0.1,0,0.2,0,0.3,0l0.1,0c0,0.1,0,0.2,0,0.3c0,0.1,0,0.2,0,0.3s0,0.2,0,0.3
		c0,0.3-0.1,0.6-0.2,0.8C61,12.9,60.7,13,60.3,13c-0.4,0-0.8-0.1-1.1-0.2c-0.3-0.2-0.7-0.4-1-0.8c-0.3-0.4-0.6-0.9-1-1.5
		c-0.3-0.6-0.7-1.4-1-2.4h-0.6c-0.4,0-0.7,0-1-0.1c-0.2,0-0.3,0-0.4-0.1c0,0.3,0,0.7,0,1.1c0,0.4,0,0.8,0,1c0,0.3,0,0.7,0,1
		c0,0.3,0,0.6,0.1,0.9c0,0.3,0.1,0.6,0.1,0.8c-0.2,0-0.3,0.1-0.5,0.1c-0.1,0-0.3,0-0.5,0.1c-0.2,0-0.3,0-0.5,0c-0.3,0-0.4,0-0.6-0.1
		c-0.1-0.1-0.2-0.3-0.2-0.6c0-0.9,0-1.9,0.1-3c0-1.1,0.1-2.3,0.1-3.6c0-0.9,0-1.7-0.1-2.5c-0.1-0.8-0.2-1.6-0.4-2.5
		c0.4-0.1,0.8-0.1,1.2-0.2s0.8-0.1,1.2-0.1c0.4,0,0.8-0.1,1.1-0.1c0.4,0,0.7,0,0.9,0c0.7,0,1.3,0.1,1.9,0.2C58.5,0.5,59,0.7,59.4,1
		s0.7,0.7,1,1.2C60.6,2.7,60.7,3.3,60.7,4z M58.6,4.1c0-0.3-0.1-0.6-0.2-0.9c-0.1-0.3-0.3-0.5-0.5-0.7c-0.2-0.2-0.5-0.4-0.8-0.5
		c-0.3-0.1-0.8-0.2-1.2-0.2c-0.3,0-0.7,0-1,0.1C54.5,1.9,54.2,2,54,2c0,0.3,0,0.7,0.1,1.2c0,0.4,0,0.8,0.1,1.3c0,0.5,0,1.1,0,1.7
		c0.1,0,0.3,0,0.5,0.1c0.3,0,0.6,0.1,1.1,0.1c1,0,1.7-0.2,2.2-0.6C58.3,5.4,58.6,4.8,58.6,4.1z"/>
	<path class="st0" d="M72.6,4c0,0.9-0.2,1.7-0.7,2.3c-0.4,0.6-1.1,1.1-1.9,1.4c0.3,0.7,0.6,1.3,0.9,1.7c0.3,0.4,0.5,0.8,0.7,1
		c0.2,0.2,0.4,0.4,0.6,0.5c0.2,0.1,0.4,0.1,0.6,0.1c0.1,0,0.2,0,0.3,0l0.1,0c0,0.1,0,0.2,0,0.3c0,0.1,0,0.2,0,0.3s0,0.2,0,0.3
		c0,0.3-0.1,0.6-0.2,0.8c-0.2,0.2-0.5,0.4-0.9,0.4c-0.4,0-0.8-0.1-1.1-0.2c-0.3-0.2-0.7-0.4-1-0.8c-0.3-0.4-0.6-0.9-1-1.5
		c-0.3-0.6-0.7-1.4-1-2.4h-0.6c-0.4,0-0.7,0-1-0.1c-0.2,0-0.3,0-0.4-0.1c0,0.3,0,0.7,0,1.1c0,0.4,0,0.8,0,1c0,0.3,0,0.7,0,1
		c0,0.3,0,0.6,0.1,0.9c0,0.3,0.1,0.6,0.1,0.8c-0.2,0-0.3,0.1-0.5,0.1c-0.1,0-0.3,0-0.5,0.1c-0.2,0-0.3,0-0.5,0c-0.3,0-0.4,0-0.6-0.1
		c-0.1-0.1-0.2-0.3-0.2-0.6c0-0.9,0-1.9,0.1-3c0-1.1,0.1-2.3,0.1-3.6c0-0.9,0-1.7-0.1-2.5c-0.1-0.8-0.2-1.6-0.4-2.5
		c0.4-0.1,0.8-0.1,1.2-0.2s0.8-0.1,1.2-0.1c0.4,0,0.8-0.1,1.1-0.1c0.4,0,0.7,0,0.9,0c0.7,0,1.3,0.1,1.9,0.2c0.6,0.1,1.1,0.4,1.5,0.7
		s0.7,0.7,1,1.2C72.5,2.7,72.6,3.3,72.6,4z M70.5,4.1c0-0.3-0.1-0.6-0.2-0.9c-0.1-0.3-0.3-0.5-0.5-0.7C69.6,2.3,69.3,2.1,69,2
		c-0.3-0.1-0.8-0.2-1.2-0.2c-0.3,0-0.7,0-1,0.1c-0.3,0-0.6,0.1-0.8,0.1c0,0.3,0,0.7,0.1,1.2C66,3.5,66,4,66,4.5c0,0.5,0,1.1,0,1.7
		c0.1,0,0.3,0,0.5,0.1c0.3,0,0.6,0.1,1.1,0.1c1,0,1.7-0.2,2.2-0.6C70.2,5.4,70.5,4.8,70.5,4.1z"/>
	<path class="st0" d="M81,13.2c-0.9,0-1.8-0.2-2.5-0.5c-0.7-0.3-1.3-0.7-1.8-1.3c-0.5-0.6-0.8-1.2-1.1-2s-0.4-1.7-0.4-2.6
		c0-0.9,0.1-1.7,0.4-2.6c0.3-0.8,0.6-1.5,1.1-2.2s1.1-1.1,1.8-1.5S80.1,0,81,0c1,0,1.8,0.2,2.5,0.5c0.7,0.3,1.3,0.7,1.8,1.3
		c0.5,0.6,0.8,1.2,1.1,2c0.2,0.8,0.4,1.7,0.4,2.6c0,0.9-0.1,1.7-0.4,2.6c-0.3,0.8-0.6,1.5-1.1,2.2c-0.5,0.6-1.1,1.1-1.8,1.5
		C82.7,13,81.9,13.2,81,13.2z M81,11.4c0.5,0,0.9-0.1,1.4-0.4c0.4-0.2,0.8-0.6,1.1-1c0.3-0.4,0.6-0.9,0.8-1.5c0.2-0.6,0.3-1.3,0.3-2
		c0-0.7-0.1-1.4-0.3-2c-0.2-0.6-0.4-1.1-0.8-1.5s-0.7-0.7-1.2-0.9s-0.9-0.3-1.5-0.3c-0.5,0-0.9,0.1-1.3,0.3c-0.4,0.2-0.8,0.5-1.1,1
		c-0.3,0.4-0.6,0.9-0.8,1.5c-0.2,0.6-0.3,1.3-0.3,2c0,0.7,0.1,1.4,0.3,2s0.4,1.1,0.8,1.5s0.7,0.7,1.2,0.9C80,11.3,80.5,11.4,81,11.4
		z"/>
	<path class="st0" d="M92.2,1c1,1.7,1.9,3.2,2.8,4.6s1.8,2.8,2.8,4.1c0-1.1,0-2.3,0-3.4s0-2.1,0-3.1c0-0.2,0-0.4,0-0.7
		c0-0.3,0-0.6-0.1-0.9c0-0.4-0.1-0.7-0.1-1.2c0.2-0.1,0.5-0.1,0.7-0.1c0.3,0,0.5,0,0.7,0c0.2,0,0.4,0,0.5,0.1
		c0.1,0.1,0.2,0.2,0.2,0.5c0,0.2,0,0.5,0,0.9c0,0.4,0,0.8-0.1,1.3c0,0.4-0.1,0.9-0.1,1.4c0,0.5,0,0.9,0,1.3c0,0.5,0,1.1,0,1.7
		s0,1.3,0,1.9s0,1.3,0,1.9c0,0.6,0,1.2,0.1,1.7c-0.2,0.1-0.5,0.1-0.7,0.2c-0.2,0-0.4,0-0.6,0c-0.2,0-0.4,0-0.6-0.1
		c-0.2-0.1-0.3-0.2-0.5-0.4c-0.5-0.7-1.1-1.4-1.6-2.1c-0.5-0.7-1-1.5-1.5-2.2c-0.5-0.7-1-1.5-1.4-2.2c-0.4-0.7-0.9-1.4-1.2-2.1
		c0,0.8,0,1.7,0,2.6s0,1.9,0,2.9c0,0.5,0,1,0,1.6c0,0.6,0,1.2,0,1.9c-0.5,0.1-0.8,0.1-1.2,0.1s-0.5-0.1-0.7-0.2
		c-0.1-0.1-0.2-0.4-0.2-0.7c0-0.5,0-1.1,0-1.7c0-0.6,0-1.1,0.1-1.7c0-1,0-2.1,0.1-3.1c0-1.1,0-2.1,0-3c0-0.2,0-0.5-0.1-0.8
		c-0.1-0.3-0.2-0.8-0.3-1.3c0.1,0,0.3-0.1,0.4-0.1c0.1,0,0.3,0,0.5-0.1c0.2,0,0.4,0,0.6,0c0.3,0,0.6,0.1,0.8,0.2
		C91.9,0.5,92,0.7,92.2,1z"/>
	<path class="st0" d="M106.6,11.3c0.7,0,1.2-0.2,1.6-0.5c0.4-0.3,0.5-0.7,0.5-1.2c0-0.2,0-0.5-0.1-0.7c-0.1-0.2-0.2-0.4-0.4-0.6
		c-0.2-0.2-0.4-0.3-0.8-0.5c-0.3-0.2-0.8-0.3-1.3-0.5c-1.2-0.3-2.1-0.8-2.7-1.3s-0.9-1.3-0.9-2.3c0-0.6,0.1-1.2,0.3-1.7
		c0.2-0.5,0.5-0.9,0.9-1.2s0.8-0.5,1.3-0.7c0.5-0.1,1-0.2,1.6-0.2c0.7,0,1.4,0,1.9,0.1c0.6,0.1,1.1,0.1,1.5,0.1v0.1c0,0,0,0.1,0,0.1
		s0,0.1,0,0.2c0,1-0.2,1.5-0.7,1.5c-0.2,0-0.3,0-0.5-0.1c-0.2,0-0.4-0.1-0.6-0.1c-0.2,0-0.5-0.1-0.7-0.1c-0.3,0-0.6-0.1-0.9-0.1
		c-0.6,0-1.1,0.1-1.5,0.4c-0.3,0.3-0.5,0.7-0.5,1.2c0,0.2,0,0.4,0.1,0.6c0,0.2,0.2,0.3,0.3,0.5c0.2,0.2,0.4,0.3,0.7,0.5
		c0.3,0.1,0.7,0.3,1.2,0.5c0.6,0.2,1.1,0.4,1.6,0.6c0.5,0.2,0.9,0.5,1.2,0.7c0.3,0.3,0.6,0.6,0.8,1.1c0.2,0.4,0.3,0.9,0.3,1.5
		c0,0.6-0.1,1.2-0.4,1.6s-0.6,0.9-1,1.2c-0.4,0.3-0.9,0.5-1.4,0.7c-0.5,0.2-1.1,0.2-1.7,0.2c-0.6,0-1.1,0-1.6-0.1
		c-0.5-0.1-0.9-0.2-1.2-0.3s-0.6-0.3-0.8-0.5c-0.2-0.2-0.3-0.4-0.3-0.6c0-0.3,0-0.6,0.1-0.8c0.1-0.2,0.2-0.5,0.4-0.8
		c0.2,0.2,0.5,0.4,0.7,0.5c0.2,0.2,0.5,0.3,0.8,0.4c0.3,0.1,0.6,0.2,0.9,0.3C105.8,11.3,106.2,11.3,106.6,11.3z"/>
</g>
</svg>
